<svg width="33" height="20" viewBox="0 0 33 20" fill="none" xmlns="http://www.w3.org/2000/svg">
<g clip-path="url(#clip0_11_4411)">
<path d="M16.506 20.0001C26.2623 20.0001 33 12.3849 33 10.0059C33 7.61524 26.2503 0.0117188 16.506 0.0117188C6.88254 0.0117188 0 7.61524 0 10.0059C0 12.3849 6.87046 20.0001 16.506 20.0001ZM16.506 18.1576C8.54883 18.1576 2.11305 11.6502 2.11305 10.0059C2.11305 8.61816 8.54883 1.85428 16.506 1.85428C24.427 1.85428 30.8869 8.61816 30.8869 10.0059C30.8869 11.6502 24.427 18.1576 16.506 18.1576ZM16.506 16.5366C20.2612 16.5366 23.2798 13.5628 23.2798 10.0059C23.2798 6.35577 20.2612 3.47529 16.506 3.47529C12.7267 3.47529 9.69592 6.35577 9.70799 10.0059C9.73214 13.5628 12.7267 16.5366 16.506 16.5366ZM16.506 12.175C15.2503 12.175 14.236 11.1954 14.236 10.0059C14.236 8.80475 15.2503 7.83681 16.506 7.83681C17.7497 7.83681 18.764 8.80475 18.764 10.0059C18.764 11.1954 17.7497 12.175 16.506 12.175Z" fill="black" fill-opacity="0.85"/>
</g>
<defs>
<clipPath id="clip0_11_4411">
<rect width="33" height="20" fill="white"/>
</clipPath>
</defs>
</svg>
