<svg width="10" height="8" viewBox="0 0 10 8" fill="none" xmlns="http://www.w3.org/2000/svg">
<g clip-path="url(#clip0_100_7256)">
<path d="M5.00288 7.06595C5.1468 7.06595 5.29073 7.00835 5.3886 6.89899L9.84454 2.33365C9.9424 2.23578 10 2.10912 10 1.9652C10 1.66583 9.77545 1.43555 9.47609 1.43555C9.33219 1.43555 9.19978 1.49312 9.10192 1.58523L4.69199 6.093H5.308L0.898101 1.58523C0.805988 1.49312 0.673576 1.43555 0.523892 1.43555C0.224525 1.43555 0 1.66583 0 1.9652C0 2.10912 0.0575705 2.23578 0.15544 2.3394L4.6114 6.89899C4.72078 7.00835 4.85319 7.06595 5.00288 7.06595Z" fill="black" fill-opacity="0.85"/>
</g>
<defs>
<clipPath id="clip0_100_7256">
<rect width="10" height="6.13126" fill="white" transform="translate(0 0.93457)"/>
</clipPath>
</defs>
</svg>
